<?xml version="1.0" encoding="utf-8"?>
<!-- Generator: Adobe Illustrator 24.2.3, SVG Export Plug-In . SVG Version: 6.00 Build 0)  -->
<svg version="1.1" id="Layer_1" xmlns="http://www.w3.org/2000/svg" xmlns:xlink="http://www.w3.org/1999/xlink" x="0px" y="0px"
	 viewBox="0 0 120 120" style="enable-background:new 0 0 120 120;" xml:space="preserve">
<style type="text/css">
	.st0{fill:#1877F2;}
	.st1{fill:#FFFFFF;}
</style>
<g>
	<path class="st0" d="M120,60c0-33.1-26.9-60-60-60S0,26.8,0,60c0,30,21.9,54.8,50.7,59.3v-42H35.3V60h15.3V46.7
		c0-15,8.9-23.4,22.6-23.4c6.5,0,13.3,1.2,13.3,1.2v14.6h-7.5c-7.5,0-9.8,4.7-9.8,9.4v11.2H86l-2.7,17.3h-14v42
		C98.1,114.8,120,89.9,120,60z"/>
	<path class="st1" d="M83.4,77.3L86,60H69.3V48.8c0-4.8,2.4-9.4,9.8-9.4h7.5V24.7c0,0-6.8-1.2-13.3-1.2c-13.7,0-22.6,8.3-22.6,23.4
		V60H35.4v17.3h15.3v42c3,0.5,6.2,0.7,9.3,0.7c3.2,0,6.3-0.2,9.3-0.7v-42H83.4z"/>
</g>
</svg>
