<?xml version="1.0" encoding="utf-8"?>
<!-- Generator: Adobe Illustrator 24.2.3, SVG Export Plug-In . SVG Version: 6.00 Build 0)  -->
<svg version="1.1" id="Layer_1" xmlns="http://www.w3.org/2000/svg" xmlns:xlink="http://www.w3.org/1999/xlink" x="0px" y="0px"
	 viewBox="0 0 119.9 119.4" style="enable-background:new 0 0 119.9 119.4;" xml:space="preserve">
<style type="text/css">
	.st0{display:none;fill:#0077BA;}
	.st1{display:none;fill:#FFFFFF;}
	.st2{fill:#2867B2;}
</style>
<path class="st0" d="M10.5-0.2h98.6c5.9,0,10.7,4.8,10.7,10.7v98.6c0,5.9-4.8,10.7-10.7,10.7H10.5c-5.9,0-10.7-4.8-10.7-10.7V10.5
	C-0.2,4.6,4.6-0.2,10.5-0.2z"/>
<path class="st1" d="M17.4,44.4h17.8v56.7H17.4V44.4z"/>
<path class="st1" d="M26.5,36.7c-5.5,0.1-10-4.3-10.1-9.8c0-0.1,0-0.3,0-0.4c-0.1-5.5,4.3-10,9.8-10c0.2,0,0.3,0,0.5,0
	c5.5,0,10,4.4,10,9.8c0,0.1,0,0.2,0,0.3c0.1,5.5-4.3,10-9.8,10.1C26.7,36.7,26.6,36.7,26.5,36.7z"/>
<g>
	<path class="st2" d="M60,0c17.3,0,34.6,0,51.9,0c1.9,0,3.6,0.8,5.1,2.1c0.8,0.7,1.4,1.6,2,2.5c0.4,0.6,0.5,1.3,0.7,1.9
		c0.2,1,0.2,1.9,0.2,2.9c0,33.8,0,67.6,0,101.4c0,1.2-0.3,2.4-0.7,3.5c-0.2,0.7-0.7,1.4-1.2,1.9c-1.1,1.3-2.4,2.3-4,2.7
		c-0.6,0.2-1.2,0.4-1.9,0.4c-34.7,0-69.5,0-104.2,0c-1.4,0-2.7-0.6-3.8-1.3c-1.4-0.8-2.3-2.1-3.1-3.4c-0.2-0.3-0.6-1.9-0.7-2.2
		c-0.4-1.5-0.2-3.1-0.2-4.6C0,74.8,0,41.7,0,8.5C0,7.3,0.3,6,0.8,5C2,2.6,3.9,0.8,6.7,0.2C7.3,0.1,7.8,0,8.4,0C25.6,0,42.8,0,60,0z
		 M102.2,102c0-11.8,0-23.5,0-35.2c0-0.6,0.1-1.3-0.2-1.9c-0.2-0.4,0-1,0-1.4c0-0.5-0.1-0.9-0.2-1.4c-0.1-0.5,0.1-0.9-0.2-1.4
		c-0.2-0.4,0.1-0.9-0.3-1.3c-0.1-1.3-0.5-2.5-0.9-3.8c-0.5-1.7-1.3-3.3-2.3-4.8c-1-1.5-2.2-2.7-3.5-3.8c-1.4-1.2-3.1-1.8-4.8-2.5
		c-0.8-0.3-1.6-0.5-2.4-0.7c-0.8-0.2-1.7-0.3-2.5-0.4c-0.6-0.1-1.3,0-1.9,0c-0.6,0-1.2-0.2-1.8-0.2c-0.8,0-1.6,0-2.4,0.2
		c-0.6,0.2-1.3,0.1-2,0.2c-1.1,0.2-3,0.8-4.3,1.4c-1.8,0.8-3.3,1.8-4.8,3.1c-1.5,1.3-2.7,2.8-3.8,4.8c0-2.8,0-5.4,0-8
		c-5.8,0-11.5,0-17.2,0c0,19.1,0,38.2,0,57.2c6,0,11.9,0,17.9,0c0-0.4,0-0.8,0-1.1c0-8.9,0-17.7,0-26.6c0-1.4-0.2-2.8,0.2-4.2
		c0.2-0.6,0.1-1.3,0.2-2c0.1-0.7,0.3-1.5,0.5-2.2c0.6-1.9,1.4-3.6,3.1-4.9c1.5-1.2,3.2-1.7,5-1.9c0.8-0.1,1.6,0,2.4,0
		c0.9,0,1.8,0.2,2.6,0.5c1.9,0.6,3.3,1.8,4.2,3.5c0.6,1.2,1.1,2.3,1.1,3.7c0.4,0.5,0,1.2,0.3,1.7c0.3,0.6,0.2,1.2,0.2,1.8
		c0,10.1,0,20.3,0,30.4c0,0.4,0,0.7,0,1.2c0.3,0.1,0.5,0.2,0.7,0.2C90.7,102,96.4,102,102.2,102z M35.6,102c0-19.1,0-38.2,0-57.2
		c-2.9-0.1-17-0.1-17.9,0.1c0,19,0,38.1,0,57.1C23.7,102,29.7,102,35.6,102z M26.5,36.9c0.7,0,1.2,0,1.8,0c0.2,0,0.5-0.2,0.7-0.2
		c1.8-0.3,3.3-1.3,4.7-2.4c1.1-0.9,1.8-2.1,2.4-3.4c0.6-1.2,0.9-2.4,0.9-3.7c0-0.3,0-0.7,0-1c0-1.5-0.4-2.8-1-4.2
		c-0.5-0.9-1.1-1.7-1.7-2.5c-0.7-0.9-1.7-1.5-2.7-2.1c-0.5-0.3-1-0.5-1.5-0.7c-0.7-0.2-1.4-0.4-2.2-0.4c-0.8-0.1-1.6,0-2.5,0
		c-0.5,0-1.1,0.1-1.6,0.3c-1.6,0.6-3.1,1.3-4.3,2.5c-0.9,0.9-1.6,2-2.2,3.1c-0.6,1.2-1,2.5-0.9,3.9c0,0.8-0.1,1.6,0,2.3
		c0.3,1.3,0.8,2.7,1.5,3.8c1,1.5,2.3,2.7,3.9,3.5C23.3,36.6,24.9,37,26.5,36.9z"/>
</g>
</svg>
