<svg width="27" height="14" viewBox="0 0 27 14" fill="none" xmlns="http://www.w3.org/2000/svg">
<g>
<rect x="0.5" y="0.359375" width="26" height="13" rx="6.5" fill="url(#paint0_linear_4396_5195)" fill-opacity="0.7"/>
<path d="M4.564 8.89537L4.996 8.18338C5.212 8.41537 5.5 8.62337 5.908 8.62337C6.484 8.62337 6.844 8.23937 6.844 7.65537V4.02337H7.78V7.67137C7.78 8.88737 7.012 9.45538 5.98 9.45538C5.428 9.45538 4.94 9.29537 4.564 8.89537ZM8.67956 6.69537C8.67956 5.10337 9.80756 3.93537 11.4076 3.93537C13.0076 3.93537 14.1356 5.10337 14.1356 6.69537C14.1356 8.28737 13.0076 9.45538 11.4076 9.45538C9.80756 9.45538 8.67956 8.28737 8.67956 6.69537ZM13.1756 6.69537C13.1756 5.59137 12.4796 4.76737 11.4076 4.76737C10.3276 4.76737 9.63956 5.59137 9.63956 6.69537C9.63956 7.79137 10.3276 8.62337 11.4076 8.62337C12.4796 8.62337 13.1756 7.79137 13.1756 6.69537ZM15.0368 9.35938V4.02337H15.9728V9.35938H15.0368ZM20.8271 9.35938L18.0431 5.47137V9.35938H17.1071V4.02337H18.0671L20.7951 7.80737V4.02337H21.7311V9.35938H20.8271Z" fill="white"/>
</g>
<defs>
<linearGradient id="paint0_linear_4396_5195" x1="26.5" y1="13.3594" x2="0.5" y2="0.359375" gradientUnits="userSpaceOnUse">
<stop stop-color="#047E2E"/>
<stop offset="0.865505" stop-color="#19BA50"/>
<stop offset="1" stop-color="#047E2E"/>
</linearGradient>
</defs>
</svg>
