<svg width="26" height="14" viewBox="0 0 26 14" fill="none" xmlns="http://www.w3.org/2000/svg">
<g>
<rect y="0.75" width="26" height="13" rx="6.5" fill="url(#paint0_linear_4396_5196)" fill-opacity="0.7"/>
<path d="M4.064 9.286L4.496 8.574C4.712 8.806 5 9.014 5.408 9.014C5.984 9.014 6.344 8.63 6.344 8.046V4.414H7.28V8.062C7.28 9.278 6.512 9.846 5.48 9.846C4.928 9.846 4.44 9.686 4.064 9.286ZM8.17956 7.086C8.17956 5.494 9.30756 4.326 10.9076 4.326C12.5076 4.326 13.6356 5.494 13.6356 7.086C13.6356 8.678 12.5076 9.846 10.9076 9.846C9.30756 9.846 8.17956 8.678 8.17956 7.086ZM12.6756 7.086C12.6756 5.982 11.9796 5.158 10.9076 5.158C9.82756 5.158 9.13956 5.982 9.13956 7.086C9.13956 8.182 9.82756 9.014 10.9076 9.014C11.9796 9.014 12.6756 8.182 12.6756 7.086ZM14.5368 9.75V4.414H15.4728V9.75H14.5368ZM20.3271 9.75L17.5431 5.862V9.75H16.6071V4.414H17.5671L20.2951 8.198V4.414H21.2311V9.75H20.3271Z" fill="white"/>
</g>
<defs>
<linearGradient id="paint0_linear_4396_5196" x1="26" y1="13.75" x2="0" y2="0.75" gradientUnits="userSpaceOnUse">
<stop stop-color="#0053CF"/>
<stop offset="0.865505" stop-color="#5284CF"/>
<stop offset="1" stop-color="#0053CF"/>
</linearGradient>
</defs>
</svg>
